G04 #@! TF.GenerationSoftware,KiCad,Pcbnew,(5.0.2)-1*
G04 #@! TF.CreationDate,2019-03-19T11:40:13-04:00*
G04 #@! TF.ProjectId,MotorBreakout,4d6f746f-7242-4726-9561-6b6f75742e6b,rev?*
G04 #@! TF.SameCoordinates,Original*
G04 #@! TF.FileFunction,Soldermask,Top*
G04 #@! TF.FilePolarity,Negative*
%FSLAX46Y46*%
G04 Gerber Fmt 4.6, Leading zero omitted, Abs format (unit mm)*
G04 Created by KiCad (PCBNEW (5.0.2)-1) date 2019-03-19 11:40:13 AM*
%MOMM*%
%LPD*%
G01*
G04 APERTURE LIST*
%ADD10C,0.100000*%
G04 APERTURE END LIST*
D10*
G36*
X139810442Y-85465518D02*
X139876627Y-85472037D01*
X139989853Y-85506384D01*
X140046467Y-85523557D01*
X140185087Y-85597652D01*
X140202991Y-85607222D01*
X140238729Y-85636552D01*
X140340186Y-85719814D01*
X140423448Y-85821271D01*
X140452778Y-85857009D01*
X140452779Y-85857011D01*
X140536443Y-86013533D01*
X140536443Y-86013534D01*
X140587963Y-86183373D01*
X140605359Y-86360000D01*
X140587963Y-86536627D01*
X140553616Y-86649853D01*
X140536443Y-86706467D01*
X140462348Y-86845087D01*
X140452778Y-86862991D01*
X140423448Y-86898729D01*
X140340186Y-87000186D01*
X140238729Y-87083448D01*
X140202991Y-87112778D01*
X140202989Y-87112779D01*
X140046467Y-87196443D01*
X139989853Y-87213616D01*
X139876627Y-87247963D01*
X139810442Y-87254482D01*
X139744260Y-87261000D01*
X139655740Y-87261000D01*
X139589558Y-87254482D01*
X139523373Y-87247963D01*
X139410147Y-87213616D01*
X139353533Y-87196443D01*
X139197011Y-87112779D01*
X139197009Y-87112778D01*
X139161271Y-87083448D01*
X139059814Y-87000186D01*
X138976552Y-86898729D01*
X138947222Y-86862991D01*
X138937652Y-86845087D01*
X138863557Y-86706467D01*
X138846384Y-86649853D01*
X138812037Y-86536627D01*
X138794641Y-86360000D01*
X138812037Y-86183373D01*
X138863557Y-86013534D01*
X138863557Y-86013533D01*
X138947221Y-85857011D01*
X138947222Y-85857009D01*
X138976552Y-85821271D01*
X139059814Y-85719814D01*
X139161271Y-85636552D01*
X139197009Y-85607222D01*
X139214913Y-85597652D01*
X139353533Y-85523557D01*
X139410147Y-85506384D01*
X139523373Y-85472037D01*
X139589558Y-85465518D01*
X139655740Y-85459000D01*
X139744260Y-85459000D01*
X139810442Y-85465518D01*
X139810442Y-85465518D01*
G37*
G36*
X134730442Y-85465518D02*
X134796627Y-85472037D01*
X134909853Y-85506384D01*
X134966467Y-85523557D01*
X135105087Y-85597652D01*
X135122991Y-85607222D01*
X135158729Y-85636552D01*
X135260186Y-85719814D01*
X135343448Y-85821271D01*
X135372778Y-85857009D01*
X135372779Y-85857011D01*
X135456443Y-86013533D01*
X135456443Y-86013534D01*
X135507963Y-86183373D01*
X135525359Y-86360000D01*
X135507963Y-86536627D01*
X135473616Y-86649853D01*
X135456443Y-86706467D01*
X135382348Y-86845087D01*
X135372778Y-86862991D01*
X135343448Y-86898729D01*
X135260186Y-87000186D01*
X135158729Y-87083448D01*
X135122991Y-87112778D01*
X135122989Y-87112779D01*
X134966467Y-87196443D01*
X134909853Y-87213616D01*
X134796627Y-87247963D01*
X134730442Y-87254482D01*
X134664260Y-87261000D01*
X134575740Y-87261000D01*
X134509558Y-87254482D01*
X134443373Y-87247963D01*
X134330147Y-87213616D01*
X134273533Y-87196443D01*
X134117011Y-87112779D01*
X134117009Y-87112778D01*
X134081271Y-87083448D01*
X133979814Y-87000186D01*
X133896552Y-86898729D01*
X133867222Y-86862991D01*
X133857652Y-86845087D01*
X133783557Y-86706467D01*
X133766384Y-86649853D01*
X133732037Y-86536627D01*
X133714641Y-86360000D01*
X133732037Y-86183373D01*
X133783557Y-86013534D01*
X133783557Y-86013533D01*
X133867221Y-85857011D01*
X133867222Y-85857009D01*
X133896552Y-85821271D01*
X133979814Y-85719814D01*
X134081271Y-85636552D01*
X134117009Y-85607222D01*
X134134913Y-85597652D01*
X134273533Y-85523557D01*
X134330147Y-85506384D01*
X134443373Y-85472037D01*
X134509558Y-85465518D01*
X134575740Y-85459000D01*
X134664260Y-85459000D01*
X134730442Y-85465518D01*
X134730442Y-85465518D01*
G37*
G36*
X132190442Y-85465518D02*
X132256627Y-85472037D01*
X132369853Y-85506384D01*
X132426467Y-85523557D01*
X132565087Y-85597652D01*
X132582991Y-85607222D01*
X132618729Y-85636552D01*
X132720186Y-85719814D01*
X132803448Y-85821271D01*
X132832778Y-85857009D01*
X132832779Y-85857011D01*
X132916443Y-86013533D01*
X132916443Y-86013534D01*
X132967963Y-86183373D01*
X132985359Y-86360000D01*
X132967963Y-86536627D01*
X132933616Y-86649853D01*
X132916443Y-86706467D01*
X132842348Y-86845087D01*
X132832778Y-86862991D01*
X132803448Y-86898729D01*
X132720186Y-87000186D01*
X132618729Y-87083448D01*
X132582991Y-87112778D01*
X132582989Y-87112779D01*
X132426467Y-87196443D01*
X132369853Y-87213616D01*
X132256627Y-87247963D01*
X132190442Y-87254482D01*
X132124260Y-87261000D01*
X132035740Y-87261000D01*
X131969558Y-87254482D01*
X131903373Y-87247963D01*
X131790147Y-87213616D01*
X131733533Y-87196443D01*
X131577011Y-87112779D01*
X131577009Y-87112778D01*
X131541271Y-87083448D01*
X131439814Y-87000186D01*
X131356552Y-86898729D01*
X131327222Y-86862991D01*
X131317652Y-86845087D01*
X131243557Y-86706467D01*
X131226384Y-86649853D01*
X131192037Y-86536627D01*
X131174641Y-86360000D01*
X131192037Y-86183373D01*
X131243557Y-86013534D01*
X131243557Y-86013533D01*
X131327221Y-85857011D01*
X131327222Y-85857009D01*
X131356552Y-85821271D01*
X131439814Y-85719814D01*
X131541271Y-85636552D01*
X131577009Y-85607222D01*
X131594913Y-85597652D01*
X131733533Y-85523557D01*
X131790147Y-85506384D01*
X131903373Y-85472037D01*
X131969558Y-85465518D01*
X132035740Y-85459000D01*
X132124260Y-85459000D01*
X132190442Y-85465518D01*
X132190442Y-85465518D01*
G37*
G36*
X129650442Y-85465518D02*
X129716627Y-85472037D01*
X129829853Y-85506384D01*
X129886467Y-85523557D01*
X130025087Y-85597652D01*
X130042991Y-85607222D01*
X130078729Y-85636552D01*
X130180186Y-85719814D01*
X130263448Y-85821271D01*
X130292778Y-85857009D01*
X130292779Y-85857011D01*
X130376443Y-86013533D01*
X130376443Y-86013534D01*
X130427963Y-86183373D01*
X130445359Y-86360000D01*
X130427963Y-86536627D01*
X130393616Y-86649853D01*
X130376443Y-86706467D01*
X130302348Y-86845087D01*
X130292778Y-86862991D01*
X130263448Y-86898729D01*
X130180186Y-87000186D01*
X130078729Y-87083448D01*
X130042991Y-87112778D01*
X130042989Y-87112779D01*
X129886467Y-87196443D01*
X129829853Y-87213616D01*
X129716627Y-87247963D01*
X129650442Y-87254482D01*
X129584260Y-87261000D01*
X129495740Y-87261000D01*
X129429558Y-87254482D01*
X129363373Y-87247963D01*
X129250147Y-87213616D01*
X129193533Y-87196443D01*
X129037011Y-87112779D01*
X129037009Y-87112778D01*
X129001271Y-87083448D01*
X128899814Y-87000186D01*
X128816552Y-86898729D01*
X128787222Y-86862991D01*
X128777652Y-86845087D01*
X128703557Y-86706467D01*
X128686384Y-86649853D01*
X128652037Y-86536627D01*
X128634641Y-86360000D01*
X128652037Y-86183373D01*
X128703557Y-86013534D01*
X128703557Y-86013533D01*
X128787221Y-85857011D01*
X128787222Y-85857009D01*
X128816552Y-85821271D01*
X128899814Y-85719814D01*
X129001271Y-85636552D01*
X129037009Y-85607222D01*
X129054913Y-85597652D01*
X129193533Y-85523557D01*
X129250147Y-85506384D01*
X129363373Y-85472037D01*
X129429558Y-85465518D01*
X129495740Y-85459000D01*
X129584260Y-85459000D01*
X129650442Y-85465518D01*
X129650442Y-85465518D01*
G37*
G36*
X127110442Y-85465518D02*
X127176627Y-85472037D01*
X127289853Y-85506384D01*
X127346467Y-85523557D01*
X127485087Y-85597652D01*
X127502991Y-85607222D01*
X127538729Y-85636552D01*
X127640186Y-85719814D01*
X127723448Y-85821271D01*
X127752778Y-85857009D01*
X127752779Y-85857011D01*
X127836443Y-86013533D01*
X127836443Y-86013534D01*
X127887963Y-86183373D01*
X127905359Y-86360000D01*
X127887963Y-86536627D01*
X127853616Y-86649853D01*
X127836443Y-86706467D01*
X127762348Y-86845087D01*
X127752778Y-86862991D01*
X127723448Y-86898729D01*
X127640186Y-87000186D01*
X127538729Y-87083448D01*
X127502991Y-87112778D01*
X127502989Y-87112779D01*
X127346467Y-87196443D01*
X127289853Y-87213616D01*
X127176627Y-87247963D01*
X127110442Y-87254482D01*
X127044260Y-87261000D01*
X126955740Y-87261000D01*
X126889558Y-87254482D01*
X126823373Y-87247963D01*
X126710147Y-87213616D01*
X126653533Y-87196443D01*
X126497011Y-87112779D01*
X126497009Y-87112778D01*
X126461271Y-87083448D01*
X126359814Y-87000186D01*
X126276552Y-86898729D01*
X126247222Y-86862991D01*
X126237652Y-86845087D01*
X126163557Y-86706467D01*
X126146384Y-86649853D01*
X126112037Y-86536627D01*
X126094641Y-86360000D01*
X126112037Y-86183373D01*
X126163557Y-86013534D01*
X126163557Y-86013533D01*
X126247221Y-85857011D01*
X126247222Y-85857009D01*
X126276552Y-85821271D01*
X126359814Y-85719814D01*
X126461271Y-85636552D01*
X126497009Y-85607222D01*
X126514913Y-85597652D01*
X126653533Y-85523557D01*
X126710147Y-85506384D01*
X126823373Y-85472037D01*
X126889558Y-85465518D01*
X126955740Y-85459000D01*
X127044260Y-85459000D01*
X127110442Y-85465518D01*
X127110442Y-85465518D01*
G37*
G36*
X124570442Y-85465518D02*
X124636627Y-85472037D01*
X124749853Y-85506384D01*
X124806467Y-85523557D01*
X124945087Y-85597652D01*
X124962991Y-85607222D01*
X124998729Y-85636552D01*
X125100186Y-85719814D01*
X125183448Y-85821271D01*
X125212778Y-85857009D01*
X125212779Y-85857011D01*
X125296443Y-86013533D01*
X125296443Y-86013534D01*
X125347963Y-86183373D01*
X125365359Y-86360000D01*
X125347963Y-86536627D01*
X125313616Y-86649853D01*
X125296443Y-86706467D01*
X125222348Y-86845087D01*
X125212778Y-86862991D01*
X125183448Y-86898729D01*
X125100186Y-87000186D01*
X124998729Y-87083448D01*
X124962991Y-87112778D01*
X124962989Y-87112779D01*
X124806467Y-87196443D01*
X124749853Y-87213616D01*
X124636627Y-87247963D01*
X124570442Y-87254482D01*
X124504260Y-87261000D01*
X124415740Y-87261000D01*
X124349558Y-87254482D01*
X124283373Y-87247963D01*
X124170147Y-87213616D01*
X124113533Y-87196443D01*
X123957011Y-87112779D01*
X123957009Y-87112778D01*
X123921271Y-87083448D01*
X123819814Y-87000186D01*
X123736552Y-86898729D01*
X123707222Y-86862991D01*
X123697652Y-86845087D01*
X123623557Y-86706467D01*
X123606384Y-86649853D01*
X123572037Y-86536627D01*
X123554641Y-86360000D01*
X123572037Y-86183373D01*
X123623557Y-86013534D01*
X123623557Y-86013533D01*
X123707221Y-85857011D01*
X123707222Y-85857009D01*
X123736552Y-85821271D01*
X123819814Y-85719814D01*
X123921271Y-85636552D01*
X123957009Y-85607222D01*
X123974913Y-85597652D01*
X124113533Y-85523557D01*
X124170147Y-85506384D01*
X124283373Y-85472037D01*
X124349558Y-85465518D01*
X124415740Y-85459000D01*
X124504260Y-85459000D01*
X124570442Y-85465518D01*
X124570442Y-85465518D01*
G37*
G36*
X122821000Y-87261000D02*
X121019000Y-87261000D01*
X121019000Y-85459000D01*
X122821000Y-85459000D01*
X122821000Y-87261000D01*
X122821000Y-87261000D01*
G37*
G36*
X137270442Y-85465518D02*
X137336627Y-85472037D01*
X137449853Y-85506384D01*
X137506467Y-85523557D01*
X137645087Y-85597652D01*
X137662991Y-85607222D01*
X137698729Y-85636552D01*
X137800186Y-85719814D01*
X137883448Y-85821271D01*
X137912778Y-85857009D01*
X137912779Y-85857011D01*
X137996443Y-86013533D01*
X137996443Y-86013534D01*
X138047963Y-86183373D01*
X138065359Y-86360000D01*
X138047963Y-86536627D01*
X138013616Y-86649853D01*
X137996443Y-86706467D01*
X137922348Y-86845087D01*
X137912778Y-86862991D01*
X137883448Y-86898729D01*
X137800186Y-87000186D01*
X137698729Y-87083448D01*
X137662991Y-87112778D01*
X137662989Y-87112779D01*
X137506467Y-87196443D01*
X137449853Y-87213616D01*
X137336627Y-87247963D01*
X137270442Y-87254482D01*
X137204260Y-87261000D01*
X137115740Y-87261000D01*
X137049558Y-87254482D01*
X136983373Y-87247963D01*
X136870147Y-87213616D01*
X136813533Y-87196443D01*
X136657011Y-87112779D01*
X136657009Y-87112778D01*
X136621271Y-87083448D01*
X136519814Y-87000186D01*
X136436552Y-86898729D01*
X136407222Y-86862991D01*
X136397652Y-86845087D01*
X136323557Y-86706467D01*
X136306384Y-86649853D01*
X136272037Y-86536627D01*
X136254641Y-86360000D01*
X136272037Y-86183373D01*
X136323557Y-86013534D01*
X136323557Y-86013533D01*
X136407221Y-85857011D01*
X136407222Y-85857009D01*
X136436552Y-85821271D01*
X136519814Y-85719814D01*
X136621271Y-85636552D01*
X136657009Y-85607222D01*
X136674913Y-85597652D01*
X136813533Y-85523557D01*
X136870147Y-85506384D01*
X136983373Y-85472037D01*
X137049558Y-85465518D01*
X137115740Y-85459000D01*
X137204260Y-85459000D01*
X137270442Y-85465518D01*
X137270442Y-85465518D01*
G37*
G36*
X126932563Y-82522781D02*
X126220563Y-82522781D01*
X126220563Y-80420781D01*
X126932563Y-80420781D01*
X126932563Y-82522781D01*
X126932563Y-82522781D01*
G37*
G36*
X133932563Y-82522781D02*
X133220563Y-82522781D01*
X133220563Y-80420781D01*
X133932563Y-80420781D01*
X133932563Y-82522781D01*
X133932563Y-82522781D01*
G37*
G36*
X134932563Y-82522781D02*
X134220563Y-82522781D01*
X134220563Y-80420781D01*
X134932563Y-80420781D01*
X134932563Y-82522781D01*
X134932563Y-82522781D01*
G37*
G36*
X135932563Y-82522781D02*
X135220563Y-82522781D01*
X135220563Y-80420781D01*
X135932563Y-80420781D01*
X135932563Y-82522781D01*
X135932563Y-82522781D01*
G37*
G36*
X131932563Y-82522781D02*
X131220563Y-82522781D01*
X131220563Y-80420781D01*
X131932563Y-80420781D01*
X131932563Y-82522781D01*
X131932563Y-82522781D01*
G37*
G36*
X130932563Y-82522781D02*
X130220563Y-82522781D01*
X130220563Y-80420781D01*
X130932563Y-80420781D01*
X130932563Y-82522781D01*
X130932563Y-82522781D01*
G37*
G36*
X129932563Y-82522781D02*
X129220563Y-82522781D01*
X129220563Y-80420781D01*
X129932563Y-80420781D01*
X129932563Y-82522781D01*
X129932563Y-82522781D01*
G37*
G36*
X128932563Y-82522781D02*
X128220563Y-82522781D01*
X128220563Y-80420781D01*
X128932563Y-80420781D01*
X128932563Y-82522781D01*
X128932563Y-82522781D01*
G37*
G36*
X127932563Y-82522781D02*
X127220563Y-82522781D01*
X127220563Y-80420781D01*
X127932563Y-80420781D01*
X127932563Y-82522781D01*
X127932563Y-82522781D01*
G37*
G36*
X136932563Y-82522781D02*
X136220563Y-82522781D01*
X136220563Y-80420781D01*
X136932563Y-80420781D01*
X136932563Y-82522781D01*
X136932563Y-82522781D01*
G37*
G36*
X132932563Y-82522781D02*
X132220563Y-82522781D01*
X132220563Y-80420781D01*
X132932563Y-80420781D01*
X132932563Y-82522781D01*
X132932563Y-82522781D01*
G37*
G36*
X124977563Y-80522781D02*
X122195563Y-80522781D01*
X122195563Y-76820781D01*
X124977563Y-76820781D01*
X124977563Y-80522781D01*
X124977563Y-80522781D01*
G37*
G36*
X140957563Y-80522781D02*
X138175563Y-80522781D01*
X138175563Y-76820781D01*
X140957563Y-76820781D01*
X140957563Y-80522781D01*
X140957563Y-80522781D01*
G37*
M02*
